HIERARCHY
ROOT Hips
{
	OFFSET 49.837799 -2.766129 54.537998
	CHANNELS 6 Xposition Yposition Zposition Xrotation Yrotation Zrotation
	JOINT spine
	{
		OFFSET 0.000000 -0.448575 7.800591
		CHANNELS 3 Xrotation Yrotation Zrotation
		JOINT spine1
		{
			OFFSET 0.000000 -0.000002 10.136402
			CHANNELS 3 Xrotation Yrotation Zrotation
			JOINT spine2
			{
				OFFSET 0.000000 -0.000001 9.712509
				CHANNELS 3 Xrotation Yrotation Zrotation
				JOINT Neck
				{
					OFFSET 0.000000 -1.188874 24.936096
					CHANNELS 3 Xrotation Yrotation Zrotation
					JOINT Head
					{
						OFFSET 0.000000 -0.000001 7.533844
						CHANNELS 3 Xrotation Yrotation Zrotation
						End Site
						{
							OFFSET 0.000000 6.014017 18.236099
						}
					}
				}
				JOINT RightShoulder
				{
					OFFSET -4.089649 0.569455 10.488800
					CHANNELS 3 Xrotation Yrotation Zrotation
					JOINT RightArm
					{
						OFFSET 0.000000 -0.000002 13.757004
						CHANNELS 3 Xrotation Yrotation Zrotation
						JOINT RightArmRoll
						{
							OFFSET 0.000000 -0.000001 6.944778
							CHANNELS 3 Xrotation Yrotation Zrotation
							JOINT RightForeArm
							{
								OFFSET 0.000000 -0.000003 20.227692
								CHANNELS 3 Xrotation Yrotation Zrotation
								JOINT RightForeArmRoll
								{
									OFFSET 0.000000 -0.000001 7.793121
									CHANNELS 3 Xrotation Yrotation Zrotation
									JOINT RightHand
									{
										OFFSET 0.000000 -0.000002 15.639099
										CHANNELS 3 Xrotation Yrotation Zrotation
										End Site
										{
											OFFSET 0.000000 0.000000 0.100006
										}
									}
								}
							}
						}
					}
				}
				JOINT LeftShoulder
				{
					OFFSET 4.089649 0.569455 10.488800
					CHANNELS 3 Xrotation Yrotation Zrotation
					JOINT LeftArm
					{
						OFFSET 0.000000 -0.000002 13.757004
						CHANNELS 3 Xrotation Yrotation Zrotation
						JOINT LeftArmRoll
						{
							OFFSET 0.000000 -0.000001 6.944778
							CHANNELS 3 Xrotation Yrotation Zrotation
							JOINT LeftForeArm
							{
								OFFSET 0.000000 -0.000003 20.227692
								CHANNELS 3 Xrotation Yrotation Zrotation
								JOINT LeftForeArmRoll
								{
									OFFSET 0.000000 -0.000001 7.793137
									CHANNELS 3 Xrotation Yrotation Zrotation
									JOINT LeftHand
									{
										OFFSET 0.000000 -0.000002 15.639099
										CHANNELS 3 Xrotation Yrotation Zrotation
										End Site
										{
											OFFSET 0.000000 0.000000 0.100006
										}
									}
								}
							}
						}
					}
				}
			}
		}
	}
	JOINT RightUpLeg
	{
		OFFSET -6.914162 1.063580 -1.267879
		CHANNELS 3 Xrotation Yrotation Zrotation
		JOINT RightUpLegRoll
		{
			OFFSET 0.000000 -0.000003 18.337799
			CHANNELS 3 Xrotation Yrotation Zrotation
			JOINT RightLeg
			{
				OFFSET 0.000000 0.000004 -22.708500
				CHANNELS 3 Xrotation Yrotation Zrotation
				JOINT RightLegRoll
				{
					OFFSET 0.000000 -0.000004 22.782803
					CHANNELS 3 Xrotation Yrotation Zrotation
					JOINT RightFoot
					{
						OFFSET 0.000000 -0.000003 18.962898
						CHANNELS 3 Xrotation Yrotation Zrotation
						JOINT RightToeBase
						{
							OFFSET 0.000000 -0.000003 15.851997
							CHANNELS 3 Xrotation Yrotation Zrotation
							End Site
							{
								OFFSET 0.006718 0.884892 7.677010
							}
						}
					}
				}
			}
		}
	}
	JOINT LeftUpLeg
	{
		OFFSET 6.914162 1.063580 -1.267879
		CHANNELS 3 Xrotation Yrotation Zrotation
		JOINT LeftUpLegRoll
		{
			OFFSET 0.000000 -0.000003 18.337898
			CHANNELS 3 Xrotation Yrotation Zrotation
			JOINT LeftLeg
			{
				OFFSET 0.000000 -0.000004 22.708405
				CHANNELS 3 Xrotation Yrotation Zrotation
				JOINT LeftLegRoll
				{
					OFFSET 0.000000 -0.000004 22.993401
					CHANNELS 3 Xrotation Yrotation Zrotation
					JOINT LeftFoot
					{
						OFFSET 0.000000 -0.000003 18.752205
						CHANNELS 3 Xrotation Yrotation Zrotation
						JOINT LeftToeBase
						{
							OFFSET 0.000000 -0.000003 15.852005
							CHANNELS 3 Xrotation Yrotation Zrotation
							End Site
							{
								OFFSET -0.030113 0.884891 7.677017
							}
						}
					}
				}
			}
		}
	}
}
MOTION
Frames: 6
Frame Time: 0.041667
49.924797 -5.995860 54.094601 7.257747 3.167418 15.907133 5.834026 -0.991124 -0.247834 15.669808 -2.011753 -0.383158 17.315356 -2.016158 -0.359030 -4.092167 8.663113 -8.307191 1.001962 -15.196882 -8.435576 -12.499032 -55.039020 -14.590240 143.290566 -57.508417 102.588014 -0.000001 -0.000003 0.000002 87.405603 1.555647 -5.837768 -0.000000 -0.000011 -3.000003 -5.000167 -7.998730 0.000150 -7.736511 52.752078 8.656987 -63.805421 120.848969 103.092375 -0.000000 -0.000004 0.000004 79.678002 3.797565 4.639322 0.000002 -0.000001 2.999999 -5.000209 7.999410 -0.000080 -92.720446 186.206065 4.450291 -179.999991 0.000005 -1.349996 74.692196 3.232559 1.872328 -0.000005 0.000000 2.631250 84.615314 6.192086 3.405866 25.456960 -7.355615 0.000010 -94.152368 180.349110 -8.140908 -0.000005 -0.000003 -2.020910 -102.399822 -4.123566 -3.024156 0.000003 0.000000 -3.254309 81.624053 -7.765322 2.387620 25.473213 7.355618 -0.004358 
49.916695 -5.955529 54.017704 7.084615 3.117291 15.859966 5.844248 -0.992186 -0.251553 15.690234 -2.013305 -0.390305 17.335684 -2.017805 -0.366163 -4.033219 8.816776 -8.255517 1.052799 -15.301837 -8.390834 -12.423423 -54.929081 -14.493497 143.405764 -57.361745 102.755019 -0.000000 -0.000004 0.000002 87.426066 1.528817 -5.827451 0.000001 -0.000008 -3.000000 -5.000169 -7.998730 0.000148 -7.725486 52.871497 8.653221 -63.853977 120.724263 103.003569 -0.000003 -0.000003 0.000001 79.764793 3.744518 4.689162 0.000001 -0.000000 3.000001 -5.000207 7.999410 -0.000078 -92.676036 186.166204 4.453041 -179.999991 0.000006 -1.352004 74.615739 3.260973 1.909465 -0.000004 -0.000000 2.629181 84.552872 6.188243 3.424368 25.456957 -7.355615 0.000011 -94.098205 180.299113 -8.165837 -0.000004 -0.000004 -2.025141 -102.486374 -4.142707 -3.051399 0.000002 -0.000001 -3.257617 81.587422 -7.769817 2.396191 25.473218 7.355620 -0.004357 
49.923695 -5.914708 53.934803 6.909954 3.066801 15.813116 5.854541 -0.993322 -0.255304 15.710767 -2.014922 -0.397509 17.356219 -2.019517 -0.373343 -3.971761 8.969328 -8.203937 1.102790 -15.405980 -8.345553 -12.347057 -54.820130 -14.395809 143.514268 -57.214200 102.921819 0.000001 -0.000003 0.000003 87.444337 1.499956 -5.815137 0.000002 -0.000011 -3.000003 -5.000168 -7.998732 0.000147 -7.711110 52.992142 8.645373 -63.906016 120.596675 102.917243 0.000002 -0.000007 0.000005 79.853094 3.690820 4.739684 -0.000000 0.000001 3.000002 -5.000208 7.999409 -0.000079 -92.628772 186.127054 4.455189 -179.999991 0.000005 -1.354995 74.540088 3.289229 1.946496 -0.000003 0.000000 2.627111 84.490963 6.184332 3.443032 25.456957 -7.355615 0.000011 -94.041118 180.249293 -8.190174 -0.000004 -0.000005 -2.029409 -102.572120 -4.161680 -3.077626 0.000002 0.000001 -3.260918 81.551414 -7.774338 2.405197 25.473218 7.355616 -0.004355 
49.932796 -5.863400 53.846901 6.733815 3.016405 15.766817 5.864928 -0.994529 -0.259027 15.731498 -2.016622 -0.404624 17.376957 -2.021323 -0.380437 -3.907369 9.118621 -8.152977 1.150377 -15.508124 -8.300111 -12.270907 -54.714654 -14.298516 143.613866 -57.067272 103.084596 0.000001 -0.000005 0.000003 87.460791 1.469992 -5.801617 -0.000000 -0.000011 -3.000001 -5.000168 -7.998730 0.000152 -7.693745 53.112470 8.633802 -63.960965 120.467434 102.833443 0.000004 -0.000004 0.000004 79.942030 3.637033 4.790460 0.000002 0.000000 3.000000 -5.000198 7.999409 -0.000082 -92.578433 186.088736 4.457646 -179.999991 0.000005 -1.357004 74.465372 3.317140 1.983092 -0.000003 0.000000 2.625040 84.429676 6.180461 3.461162 25.456957 -7.355615 0.000011 -93.981204 180.199542 -8.215743 -0.000004 -0.000004 -2.033680 -102.656883 -4.180465 -3.103839 0.000004 0.000000 -3.264168 81.515876 -7.779013 2.414617 25.473220 7.355619 -0.004357 
49.925797 -5.809869 53.786999 6.556275 2.966594 15.721202 5.875409 -0.995812 -0.262649 15.752327 -2.018447 -0.411527 17.397889 -2.023230 -0.387309 -3.839583 9.262524 -8.103176 1.193978 -15.607278 -8.254886 -12.195979 -54.615378 -14.202975 143.700937 -56.924142 103.237647 0.000001 -0.000005 0.000003 87.476070 1.439758 -5.787481 0.000002 -0.000007 -3.000001 -5.000169 -7.998726 0.000151 -7.673864 53.230956 8.618960 -64.017136 120.338644 102.750927 -0.000000 -0.000007 0.000005 80.030474 3.583860 4.840886 0.000002 -0.000000 3.000001 -5.000206 7.999411 -0.000080 -92.524878 186.051607 4.461611 -179.999991 0.000006 -1.359995 74.392085 3.344441 2.018895 -0.000002 0.000000 2.622969 84.368996 6.176771 3.478662 25.456955 -7.355614 0.000011 -93.918530 180.149777 -8.240539 -0.000004 -0.000004 -2.037941 -102.740293 -4.199186 -3.129010 0.000003 0.000001 -3.267341 81.480708 -7.783734 2.424557 25.473216 7.355619 -0.004355 
49.915295 -5.769248 53.725494 6.377415 2.917822 15.676625 5.886016 -0.997147 -0.266106 15.773562 -2.020392 -0.418076 17.419031 -2.025267 -0.393839 -3.767940 9.398892 -8.055024 1.232012 -15.702344 -8.210281 -12.123244 -54.524936 -14.110497 143.773474 -56.786381 103.377597 -0.000001 -0.000005 0.000004 87.490762 1.410081 -5.773516 -0.000001 -0.000007 -2.999996 -5.000166 -7.998735 0.000148 -7.651861 53.346072 8.601212 -64.070897 120.212463 102.666069 -0.000000 -0.000007 0.000005 80.117545 3.531838 4.890243 0.000003 -0.000000 3.000002 -5.000207 7.999410 -0.000076 -92.467859 186.015694 4.466107 -179.999991 0.000005 -1.362002 74.320456 3.370870 2.053670 -0.000004 -0.000000 2.620911 84.309055 6.173255 3.495330 25.456955 -7.355614 0.000011 -93.853192 180.099985 -8.263844 -0.000004 -0.000006 -2.042140 -102.822146 -4.217767 -3.155136 0.000003 0.000000 -3.270391 81.445805 -7.788557 2.434809 25.473211 7.355616 -0.004358 
